  <svg width="18" height="21" viewBox="0 0 18 21" xmlns="http://www.w3.org/2000/svg">
    <path d="M16.5 2.02246H13.5V0.522461H12V2.02246H6V0.522461H4.5V2.02246H1.5C1.10218 2.02246 0.720644 2.1805 0.43934 2.4618C0.158035 2.74311 0 3.12464 0 3.52246V18.5225C0 18.9203 0.158035 19.3018 0.43934 19.5831C0.720644 19.8644 1.10218 20.0225 1.5 20.0225H16.5C16.8978 20.0225 17.2794 19.8644 17.5607 19.5831C17.842 19.3018 18 18.9203 18 18.5225V3.52246C18 3.12464 17.842 2.74311 17.5607 2.4618C17.2794 2.1805 16.8978 2.02246 16.5 2.02246ZM16.5 18.5225H1.5V8.02246H16.5V18.5225ZM16.5 6.52246H1.5V3.52246H4.5V5.02246H6V3.52246H12V5.02246H13.5V3.52246H16.5V6.52246Z" />
  </svg>