<svg width="20" height="20" viewBox="0 0 20 20" fill="none" xmlns="http://www.w3.org/2000/svg">
    <path fill="#fff" d="M10 10.75C10.4142 10.75 10.75 11.0858 10.75 11.5V13.5C10.75 13.9142 10.4142 14.25 10 14.25C9.58579 14.25 9.25 13.9142 9.25 13.5V11.5C9.25 11.0858 9.58579 10.75 10 10.75Z"/>
    <path fill-rule="evenodd" clip-rule="evenodd" fill="#fff" d="M6 7.02878V5C6 2.79086 7.79086 1 10 1C12.2091 1 14 2.79086 14 5V7.02878C14.5883 7.06471 15.0057 7.14546 15.362 7.32698C15.9265 7.6146 16.3854 8.07354 16.673 8.63803C17 9.27976 17 10.1198 17 11.8V13.2C17 14.8802 17 15.7202 16.673 16.362C16.3854 16.9265 15.9265 17.3854 15.362 17.673C14.7202 18 13.8802 18 12.2 18H7.8C6.11984 18 5.27976 18 4.63803 17.673C4.07354 17.3854 3.6146 16.9265 3.32698 16.362C3 15.7202 3 14.8802 3 13.2V11.8C3 10.1198 3 9.27976 3.32698 8.63803C3.6146 8.07354 4.07354 7.6146 4.63803 7.32698C4.99429 7.14546 5.41168 7.06471 6 7.02878ZM10 2.5C11.3807 2.5 12.5 3.61929 12.5 5V7H7.5V5C7.5 3.61929 8.61929 2.5 10 2.5ZM7.8 8.5C6.93517 8.5 6.37676 8.50117 5.95175 8.53589C5.54426 8.56918 5.39318 8.6257 5.31901 8.66349C5.03677 8.8073 4.8073 9.03677 4.66349 9.31902C4.6257 9.39318 4.56918 9.54426 4.53589 9.95175C4.50117 10.3768 4.5 10.9352 4.5 11.8V13.2C4.5 14.0648 4.50117 14.6232 4.53589 15.0482C4.56918 15.4557 4.6257 15.6068 4.66349 15.681C4.8073 15.9632 5.03677 16.1927 5.31901 16.3365C5.39318 16.3743 5.54426 16.4308 5.95175 16.4641C6.37676 16.4988 6.93517 16.5 7.8 16.5H12.2C13.0648 16.5 13.6232 16.4988 14.0482 16.4641C14.4557 16.4308 14.6068 16.3743 14.681 16.3365C14.9632 16.1927 15.1927 15.9632 15.3365 15.681C15.3743 15.6068 15.4308 15.4557 15.4641 15.0482C15.4988 14.6232 15.5 14.0648 15.5 13.2V11.8C15.5 10.9352 15.4988 10.3768 15.4641 9.95175C15.4308 9.54426 15.3743 9.39318 15.3365 9.31902C15.1927 9.03677 14.9632 8.8073 14.681 8.66349C14.6068 8.6257 14.4557 8.56918 14.0482 8.53589C13.6232 8.50117 13.0648 8.5 12.2 8.5H7.8Z"/>
</svg>
