  <svg width="20" height="20" viewBox="0 0 20 20" xmlns="http://www.w3.org/2000/svg">
    <path d="M10 6.25C10.3708 6.25 10.7334 6.35997 11.0417 6.56599C11.35 6.77202 11.5904 7.06486 11.7323 7.40747C11.8742 7.75008 11.9113 8.12708 11.839 8.49079C11.7666 8.85451 11.5881 9.1886 11.3258 9.45083C11.0636 9.71305 10.7295 9.89162 10.3658 9.96397C10.0021 10.0363 9.62508 9.99919 9.28247 9.85727C8.93986 9.71536 8.64702 9.47504 8.441 9.16669C8.23497 8.85835 8.125 8.49584 8.125 8.125C8.125 7.62772 8.32255 7.1508 8.67418 6.79917C9.02581 6.44754 9.50272 6.25 10 6.25ZM10 5C9.38194 5 8.77775 5.18328 8.26384 5.52666C7.74994 5.87004 7.3494 6.3581 7.11288 6.92911C6.87635 7.50013 6.81447 8.12847 6.93505 8.73466C7.05563 9.34085 7.35325 9.89767 7.79029 10.3347C8.22733 10.7717 8.78415 11.0694 9.39034 11.19C9.99654 11.3105 10.6249 11.2486 11.1959 11.0121C11.7669 10.7756 12.255 10.3751 12.5983 9.86116C12.9417 9.34725 13.125 8.74307 13.125 8.125C13.125 7.2962 12.7958 6.50134 12.2097 5.91529C11.6237 5.32924 10.8288 5 10 5Z" />
    <path d="M10 2.50008C11.4667 2.48 12.8816 3.04133 13.9357 4.06139C14.9897 5.08146 15.5971 6.4773 15.625 7.94383C15.6253 9.12359 15.2316 10.2697 14.5062 11.2001L10 17.7876L5.53125 11.2501C4.78184 10.3111 4.37409 9.14519 4.375 7.94383C4.40294 6.4773 5.0103 5.08146 6.06433 4.06139C7.11836 3.04133 8.53334 2.48 10 2.50008ZM10 1.25008C8.20087 1.22672 6.46607 1.91867 5.17691 3.17385C3.88774 4.42903 3.1497 6.14472 3.125 7.94383C3.12658 9.39857 3.61011 10.8118 4.5 11.9626L10 20.0001L15.5 11.9626C16.3899 10.8118 16.8734 9.39857 16.875 7.94383C16.8503 6.14472 16.1123 4.42903 14.8231 3.17385C13.5339 1.91867 11.7991 1.22672 10 1.25008Z" />
  </svg>