  <svg width="21" height="21" viewBox="0 0 21 21" xmlns="http://www.w3.org/2000/svg">
    <path d="M20.5008 19.4426L14.8383 13.7501C16.192 12.1167 16.8645 10.0247 16.7161 7.9085C16.5677 5.7923 15.6098 3.81458 14.0414 2.38615C12.473 0.957712 10.4146 0.188343 8.29382 0.237844C6.173 0.287345 4.15275 1.15191 2.6527 2.65197C1.15264 4.15202 0.288078 6.17227 0.238577 8.29309C0.189076 10.4139 0.958445 12.4723 2.38688 14.0407C3.81532 15.6091 5.79303 16.567 7.90923 16.7154C10.0254 16.8638 12.1175 16.1913 13.7508 14.8376L19.4433 20.5001L20.5008 19.4426ZM1.75081 8.50008C1.75081 7.16506 2.1467 5.86001 2.8884 4.74998C3.63009 3.63995 4.6843 2.77479 5.9177 2.2639C7.1511 1.753 8.5083 1.61933 9.81767 1.87978C11.127 2.14023 12.3298 2.78311 13.2738 3.72711C14.2178 4.67112 14.8607 5.87385 15.1211 7.18322C15.3816 8.49259 15.2479 9.84979 14.737 11.0832C14.2261 12.3166 13.3609 13.3708 12.2509 14.1125C11.1409 14.8542 9.83584 15.2501 8.50081 15.2501C6.7106 15.2501 4.99371 14.5389 3.72784 13.2731C2.46197 12.0072 1.75081 10.2903 1.75081 8.50008Z" />
  </svg>