  <svg width="20" height="23" viewBox="0 0 20 23" xmlns="http://www.w3.org/2000/svg">
    <path d="M19.5246 15.225L17.4996 13.2V9.75C17.4972 7.88758 16.8067 6.09172 15.5608 4.70739C14.3149 3.32306 12.6015 2.44789 10.7496 2.25V0.75H9.24958V2.25C7.40283 2.46053 5.69691 3.33944 4.45349 4.72102C3.21008 6.10259 2.51509 7.89135 2.49958 9.75V13.2L0.474585 15.225C0.401383 15.2911 0.343364 15.3722 0.304522 15.4628C0.26568 15.5535 0.246938 15.6514 0.249585 15.75V18C0.242955 18.1002 0.257811 18.2007 0.293158 18.2947C0.328504 18.3887 0.383525 18.474 0.454537 18.545C0.525548 18.6161 0.610912 18.6711 0.704912 18.7064C0.798911 18.7418 0.899378 18.7566 0.999584 18.75H6.24958C6.24958 19.7446 6.64467 20.6984 7.34793 21.4016C8.0512 22.1049 9.00502 22.5 9.99958 22.5C10.9941 22.5 11.948 22.1049 12.6512 21.4016C13.3545 20.6984 13.7496 19.7446 13.7496 18.75H18.9996C19.0998 18.7566 19.2003 18.7418 19.2943 18.7064C19.3883 18.6711 19.4736 18.6161 19.5446 18.545C19.6156 18.474 19.6707 18.3887 19.706 18.2947C19.7414 18.2007 19.7562 18.1002 19.7496 18V15.75C19.7522 15.6514 19.7335 15.5535 19.6946 15.4628C19.6558 15.3722 19.5978 15.2911 19.5246 15.225ZM9.99958 21C9.40285 21 8.83055 20.7629 8.40859 20.341C7.98664 19.919 7.74958 19.3467 7.74958 18.75H12.2496C12.2496 19.3467 12.0125 19.919 11.5906 20.341C11.1686 20.7629 10.5963 21 9.99958 21ZM18.2496 17.25H1.74958V16.05L3.77458 14.025C3.84779 13.9589 3.9058 13.8778 3.94465 13.7872C3.98349 13.6965 4.00223 13.5986 3.99958 13.5V9.75C3.99958 8.1587 4.63173 6.63258 5.75694 5.50736C6.88216 4.38214 8.40829 3.75 9.99958 3.75C11.5909 3.75 13.117 4.38214 14.2422 5.50736C15.3674 6.63258 15.9996 8.1587 15.9996 9.75V13.5C15.9969 13.5986 16.0157 13.6965 16.0545 13.7872C16.0934 13.8778 16.1514 13.9589 16.2246 14.025L18.2496 16.05V17.25Z" />
  </svg>