<svg width="54" height="40" viewBox="0 0 54 40" fill="none" xmlns="http://www.w3.org/2000/svg">
<path d="M54 0H0V40H54V0Z" fill="#C4DD1F"/>
<path fill-rule="evenodd" clip-rule="evenodd" d="M20.6466 23.2653C18.9159 24.5328 16.6004 24.698 15.6592 24.698C9.11639 24.698 7.97656 20.8958 7.97656 18.6589H11.5712C11.5712 19.6781 12.1162 21.5913 15.3873 21.5913C17.1722 21.5913 19.1571 21.1443 19.1571 19.2541C19.1571 17.8383 17.7925 17.4903 15.8841 17.0177L12.2659 16.1244C9.71377 15.5036 8.24846 13.9844 8.24846 11.2513C8.24846 9.26273 9.34184 5.70898 15.1671 5.70898C17.8571 5.70898 19.5826 6.57614 20.6466 7.72248V6.18026H24.1431V15.9257L28.5514 10.8528H32.8408L28.1567 16.0234L32.9662 24.2267H28.7756L25.6006 18.4846L24.1431 19.9992L24.1392 24.2267H20.6466V23.2653ZM13.6554 12.8662L18.0401 13.9366C18.9773 14.1732 19.8812 14.4648 20.6466 14.9131V11.5488H18.5597C18.4623 10.7296 18.1637 8.81503 14.8925 8.81503C13.4547 8.81503 11.7444 9.36236 11.7444 10.9779C11.7444 12.393 12.909 12.6926 13.6554 12.8662Z" fill="#65656D"/>
<path d="M9.10554 33.1098C9.22833 33.1591 9.50655 33.2411 9.81754 33.2411C10.7587 33.2411 11.2169 32.7815 11.7571 31.5915L13.7212 27.291H12.3545L11.0614 30.3687L9.74391 27.291H8.32812L10.0385 30.9021C10.1531 31.1401 10.3086 31.4027 10.3086 31.6572C10.3086 31.9198 10.1121 32.1578 9.71936 32.1578C9.48201 32.1578 9.26104 32.0921 9.10554 32.0265V33.1098Z" fill="#65656D"/>
<path d="M16.4283 30.6557C16.2482 30.705 15.7408 30.7789 15.4625 30.7789C14.9469 30.7789 14.8161 30.5654 14.8161 29.9499V28.8994H13.6621V30.188C13.6621 31.0907 14.145 31.657 15.0779 31.657C15.6099 31.657 16.1991 31.5257 16.4283 31.4682V33.1342H17.5821V28.8994H16.4283V30.6557Z" fill="#65656D"/>
<path d="M22.4043 33.1343C22.2488 32.7732 22.2569 32.3711 22.2569 31.9853V30.1551C22.2569 28.9734 21.2667 28.7764 20.4156 28.7764C19.1962 28.7764 18.5252 29.2606 18.4597 30.2044H19.5482C19.63 29.7202 19.8509 29.556 20.3829 29.556C20.8985 29.556 21.144 29.7366 21.144 30.1223C21.144 30.467 20.8657 30.5327 20.1128 30.6311C19.2781 30.7378 18.2715 30.8692 18.2715 31.9771C18.2715 32.7732 18.8443 33.2574 19.7773 33.2574C20.2847 33.2574 20.7839 33.085 21.144 32.7239C21.1604 32.9127 21.1685 32.9784 21.2258 33.1343H22.4043ZM21.1358 31.0743V31.5503C21.1358 32.1577 20.7102 32.4942 20.1047 32.4942C19.7036 32.4942 19.4663 32.2808 19.4663 31.9279C19.4663 31.4108 19.9164 31.3616 20.3174 31.2959C20.612 31.2467 20.8657 31.2303 21.1358 31.0743Z" fill="#65656D"/>
<path d="M27.2011 31.5011H26.0799C25.9899 32.0592 25.6789 32.3546 25.1797 32.3546C24.5577 32.3546 24.1976 31.8704 24.1976 31.0251C24.1976 30.1551 24.5741 29.6463 25.2042 29.6463C25.6543 29.6463 25.9571 29.9089 26.0389 30.3767H27.1765C27.0783 29.3919 26.3254 28.7764 25.1961 28.7764C23.8866 28.7764 23.0273 29.6791 23.0273 31.0497C23.0273 32.3711 23.8785 33.241 25.1797 33.241C26.3008 33.241 27.0537 32.6009 27.2011 31.5011Z" fill="#65656D"/>
<path d="M31.3075 29.794V28.8994H27.3711V29.794H28.7623V33.1342H29.9162V29.794H31.3075Z" fill="#65656D"/>
<path d="M35.7762 33.1342V28.8994H34.6223V30.4341H32.9937V28.8994H31.8398V33.1342H32.9937V31.3533H34.6223V33.1342H35.7762Z" fill="#65656D"/>
<path d="M40.6278 33.1342V28.8994H39.3102L37.8044 31.7637V28.8994H36.6914V33.1342H38.009L39.5148 30.27V33.1342H40.6278Z" fill="#65656D"/>
<path d="M45.8387 33.1342L43.9728 30.5408L45.6096 28.8994H44.2429L42.6962 30.5737V28.8994H41.5586V33.1342H42.6962V31.8376L43.2117 31.3123L44.4311 33.1342H45.8387Z" fill="#65656D"/>
</svg>
