<svg width="14" height="14" viewBox="0 0 14 14" xmlns="http://www.w3.org/2000/svg">
<path d="M14 7C14 10.866 10.866 14 7 14C3.13401 14 0 10.866 0 7C0 3.13401 3.13401 0 7 0C10.866 0 14 3.13401 14 7ZM7.25084 5.16771C6.56999 5.4509 5.20924 6.03703 3.1686 6.92611C2.83723 7.05788 2.66364 7.1868 2.64784 7.31285C2.62113 7.52588 2.88791 7.60976 3.25119 7.72399C3.3006 7.73953 3.3518 7.75563 3.40429 7.77269C3.7617 7.88887 4.24247 8.02479 4.49241 8.03019C4.71913 8.03509 4.97217 7.94162 5.25153 7.74979C7.15817 6.46275 8.14238 5.81223 8.20417 5.7982C8.24777 5.78831 8.30818 5.77587 8.3491 5.81225C8.39004 5.84863 8.38601 5.91752 8.38168 5.93601C8.35525 6.04867 7.30806 7.02223 6.76614 7.52605C6.5972 7.68311 6.47737 7.79452 6.45287 7.81996C6.39799 7.87696 6.34207 7.93087 6.28831 7.98269C5.95627 8.30278 5.70727 8.54282 6.3021 8.9348C6.58794 9.12317 6.81668 9.27894 7.04487 9.43433C7.29409 9.60405 7.54265 9.77333 7.86427 9.98415C7.9462 10.0379 8.02446 10.0936 8.10068 10.148C8.3907 10.3547 8.65126 10.5405 8.97317 10.5109C9.16022 10.4937 9.35343 10.3178 9.45155 9.79321C9.68345 8.55351 10.1393 5.86743 10.2446 4.76057C10.2538 4.66359 10.2422 4.53948 10.2329 4.485C10.2236 4.43052 10.2041 4.3529 10.1333 4.29543C10.0494 4.22738 9.91994 4.21303 9.86204 4.214C9.59875 4.21869 9.19481 4.35914 7.25084 5.16771Z" />
</svg>
