<svg width="16" height="10" viewBox="0 0 16 10" xmlns="http://www.w3.org/2000/svg">
<path d="M13.6703 4.28055C13.8793 3.99675 14.0443 3.76941 14.1667 3.59781C15.0475 2.36581 15.4288 1.57894 15.3122 1.23574L15.266 1.15507C15.2359 1.1074 15.1567 1.06267 15.0299 1.02307C14.9023 0.982735 14.7395 0.976135 14.5407 1.00253L12.3415 1.01867C12.2909 1.01353 12.2395 1.015 12.1889 1.02307C12.1376 1.03113 12.1046 1.0392 12.0892 1.04653C12.0745 1.05533 12.0621 1.06193 12.0511 1.06707L12.021 1.09127C11.9953 1.10667 11.9675 1.13527 11.9374 1.1756C11.9059 1.2152 11.8809 1.26214 11.8604 1.3164C11.6213 1.96394 11.3485 2.56674 11.0435 3.12334C10.855 3.45554 10.6819 3.74375 10.5243 3.98721C10.3666 4.23141 10.2339 4.41035 10.1268 4.52548C10.0205 4.64062 9.92365 4.73302 9.83712 4.80268C9.74985 4.87235 9.68385 4.90168 9.63838 4.89142C9.59292 4.88042 9.54892 4.87015 9.50858 4.85842C9.43745 4.81075 9.38025 4.74548 9.33698 4.66188C9.29298 4.57975 9.26438 4.47488 9.24898 4.34875C9.23358 4.22335 9.22478 4.11408 9.22185 4.02315C9.21965 3.93221 9.22112 3.80388 9.22625 3.63741C9.23138 3.47168 9.23358 3.35948 9.23358 3.30008C9.23358 3.09694 9.23725 2.87548 9.24532 2.63714C9.25265 2.39954 9.25925 2.21034 9.26438 2.07101C9.26952 1.93241 9.27172 1.78427 9.27172 1.62954C9.27172 1.47407 9.26292 1.35234 9.24532 1.2636C9.22698 1.1756 9.20058 1.0898 9.16465 1.00693C9.12872 0.924068 9.07665 0.859534 9.00845 0.814067C8.93951 0.7686 8.85371 0.731934 8.75251 0.705534C8.48265 0.641 8.13871 0.606533 7.72144 0.600666C6.77471 0.5904 6.16604 0.654933 5.8969 0.793534C5.78984 0.852934 5.69304 0.933601 5.6065 1.0348C5.51483 1.15287 5.50163 1.2174 5.56763 1.22767C5.87417 1.27607 6.08977 1.3912 6.21737 1.57307L6.26284 1.66914C6.29877 1.73954 6.33397 1.86274 6.3699 2.03947C6.4051 2.21547 6.42857 2.41127 6.43884 2.62541C6.4645 3.01701 6.4645 3.35141 6.43884 3.63008C6.41317 3.90801 6.3897 4.12508 6.36624 4.28055C6.34277 4.43528 6.30904 4.56142 6.26357 4.65748C6.21737 4.75502 6.18657 4.81368 6.17117 4.83495C6.15577 4.85622 6.1433 4.86942 6.13304 4.87528C6.06704 4.90168 5.9981 4.91488 5.92697 4.91488C5.85584 4.91488 5.7693 4.87748 5.66737 4.80195C5.56543 4.72788 5.45983 4.62448 5.35057 4.49322C5.2413 4.36195 5.11737 4.17861 4.98023 3.94248C4.8431 3.70708 4.7001 3.42841 4.5527 3.10721L4.43023 2.87401C4.3547 2.72441 4.24983 2.50661 4.11783 2.21987C3.9851 1.93314 3.86776 1.65594 3.76656 1.38827C3.72549 1.27607 3.66389 1.19027 3.58323 1.13087L3.54436 1.10667C3.51943 1.0854 3.47836 1.06267 3.42263 1.0392C3.36689 1.01427 3.30823 0.997401 3.24663 0.986401L1.15442 1.00253C0.940283 1.00253 0.795816 1.05387 0.718816 1.15507L0.688749 1.20347C0.673349 1.2306 0.666016 1.27314 0.666016 1.3318C0.666016 1.3912 0.681416 1.46307 0.712216 1.54887C1.01728 2.30421 1.34948 3.03241 1.70809 3.73421C2.06742 4.43528 2.37909 5.00068 2.64382 5.42895C2.90856 5.85795 3.17769 6.26202 3.45343 6.64262C3.72843 7.02323 3.9103 7.26596 3.99903 7.37303C4.0885 7.48083 4.15816 7.56076 4.20876 7.61429L4.40016 7.8079C4.5219 7.93623 4.70156 8.09023 4.93843 8.26916C5.17457 8.44883 5.4371 8.62556 5.7253 8.79937C6.01204 8.9739 6.34717 9.11543 6.72924 9.22543C7.11057 9.33543 7.48238 9.37943 7.84391 9.35817H8.72171C8.90065 9.34203 9.03558 9.28337 9.12652 9.18143L9.15732 9.1411C9.17785 9.10957 9.19691 9.0597 9.21451 8.99297C9.23211 8.9255 9.24165 8.85217 9.24165 8.77223C9.23652 8.54196 9.25265 8.3337 9.29078 8.1489C9.32965 7.9641 9.37218 7.8255 9.42058 7.7309C9.46898 7.63776 9.52398 7.55856 9.58558 7.49403C9.64645 7.42949 9.68898 7.39136 9.71538 7.37816C9.74032 7.36496 9.76085 7.35543 9.77625 7.34956C9.89798 7.30703 10.0417 7.34809 10.2075 7.47423C10.3732 7.60036 10.5287 7.7551 10.6731 7.9399C10.8183 8.12543 10.9929 8.33223 11.1967 8.5625C11.3999 8.7935 11.5781 8.96437 11.7306 9.0773L11.8839 9.17337C11.9851 9.2379 12.1178 9.29657 12.2813 9.3501C12.4434 9.40364 12.5864 9.41757 12.7089 9.39043L14.6639 9.35817C14.8568 9.35817 15.0071 9.32443 15.1142 9.2577C15.2205 9.19097 15.2843 9.1169 15.3049 9.03697C15.3254 8.9563 15.3261 8.8661 15.3085 8.76343C15.2909 8.66223 15.2726 8.5911 15.2557 8.5515C15.2374 8.51116 15.2205 8.47743 15.2051 8.4503C14.9514 7.96923 14.4645 7.37669 13.7465 6.67562L13.7311 6.65949L13.7238 6.65069L13.7165 6.64336H13.7084C13.3828 6.31629 13.1767 6.09702 13.0902 5.98409C12.9325 5.77069 12.8966 5.55289 12.9839 5.33362C13.044 5.16715 13.2728 4.81588 13.6703 4.28055Z" />
</svg>
