<svg width="16" height="12" viewBox="0 0 16 12" xmlns="http://www.w3.org/2000/svg">
<path d="M6.77713 8.13997V3.8622L10.4438 6.00109L6.77713 8.13997ZM15.186 3.05771C15.186 3.05771 15.043 2.04077 14.603 1.59307C14.0457 1.00529 13.4201 0.996392 13.1334 0.961555C11.0815 0.81257 8.00228 0.806641 8.00228 0.806641H7.99642C7.99642 0.806641 4.91788 0.81257 2.86528 0.961555C2.57855 0.996392 1.95375 1.00232 1.39568 1.59011C0.955682 2.0378 0.812682 3.05549 0.812682 3.05549C0.812682 3.05549 0.666016 4.25107 0.666016 5.44517V6.56441C0.666016 7.75851 0.812682 8.95261 0.812682 8.95261C0.812682 8.95261 0.955682 9.96956 1.39568 10.4173C1.95375 11.0043 2.68635 10.9858 3.01268 11.0473C4.18602 11.1607 7.99935 11.1955 7.99935 11.1955C7.99935 11.1955 11.0815 11.1911 13.1334 11.0421C13.4201 11.0073 14.0457 11.0043 14.603 10.4173C15.043 9.96956 15.186 8.95261 15.186 8.95261C15.186 8.95261 15.3327 7.75851 15.3327 6.56441V5.44517C15.3327 4.25107 15.186 3.05771 15.186 3.05771Z" />
</svg>
